<mxfile host="app.diagrams.net" modified="2023-11-18T18:10:59.555Z" agent="Mozilla/5.0 (X11; Linux x86_64) AppleWebKit/537.36 (KHTML, like Gecko) Chrome/119.0.0.0 Safari/537.36" etag="4skgo523VqWsiTKsRGzk" version="22.1.3" type="github">
  <diagram name="Page-1" id="itPdW27-nOYAai2Lb2vy">
    <mxGraphModel dx="1378" dy="779" grid="1" gridSize="10" guides="1" tooltips="1" connect="1" arrows="1" fold="1" page="1" pageScale="1" pageWidth="850" pageHeight="1100" math="0" shadow="0">
      <root>
        <mxCell id="0" />
        <mxCell id="1" parent="0" />
        <mxCell id="nDkgFtB3wj2_NNXLFKPz-1" value="" style="rounded=0;whiteSpace=wrap;html=1;" vertex="1" parent="1">
          <mxGeometry x="360" y="20" width="180" height="150" as="geometry" />
        </mxCell>
        <mxCell id="nDkgFtB3wj2_NNXLFKPz-4" value="" style="rounded=0;whiteSpace=wrap;html=1;" vertex="1" parent="1">
          <mxGeometry x="32.5" y="300" width="195" height="110" as="geometry" />
        </mxCell>
        <mxCell id="nDkgFtB3wj2_NNXLFKPz-11" style="edgeStyle=orthogonalEdgeStyle;rounded=0;orthogonalLoop=1;jettySize=auto;html=1;entryX=0.5;entryY=0;entryDx=0;entryDy=0;exitX=0.5;exitY=1;exitDx=0;exitDy=0;" edge="1" parent="1" source="nDkgFtB3wj2_NNXLFKPz-1" target="nDkgFtB3wj2_NNXLFKPz-10">
          <mxGeometry relative="1" as="geometry">
            <mxPoint x="198" y="230" as="sourcePoint" />
          </mxGeometry>
        </mxCell>
        <mxCell id="nDkgFtB3wj2_NNXLFKPz-8" value="&lt;h1&gt;&lt;font style=&quot;font-size: 12px;&quot;&gt;Personal&lt;/font&gt;&lt;/h1&gt;&lt;p&gt;&lt;font style=&quot;font-size: 12px;&quot;&gt;To organize my personal life:&lt;/font&gt;&lt;/p&gt;&lt;p&gt;&lt;/p&gt;&lt;ul&gt;&lt;li&gt;&lt;font style=&quot;font-size: 12px;&quot;&gt;Financial&lt;/font&gt;&lt;/li&gt;&lt;li&gt;Projects&lt;/li&gt;&lt;li&gt;Daily life note&lt;/li&gt;&lt;li&gt;Goals&lt;/li&gt;&lt;/ul&gt;&lt;p&gt;&lt;/p&gt;" style="text;html=1;strokeColor=none;fillColor=none;spacing=5;spacingTop=-20;whiteSpace=wrap;overflow=hidden;rounded=0;" vertex="1" parent="1">
          <mxGeometry x="360" y="20" width="180" height="150" as="geometry" />
        </mxCell>
        <mxCell id="nDkgFtB3wj2_NNXLFKPz-10" value="&lt;h1&gt;&lt;span style=&quot;font-size: 12px;&quot;&gt;Finance&lt;/span&gt;&lt;/h1&gt;&lt;div&gt;&lt;span style=&quot;font-size: 12px;&quot;&gt;Track my expenses&lt;/span&gt;&lt;/div&gt;&lt;div&gt;&lt;span style=&quot;font-size: 12px;&quot;&gt;Sometimes add note to notify something&lt;/span&gt;&lt;/div&gt;&lt;p&gt;&lt;/p&gt;" style="text;html=1;strokeColor=none;fillColor=none;spacing=5;spacingTop=-20;whiteSpace=wrap;overflow=hidden;rounded=0;" vertex="1" parent="1">
          <mxGeometry x="32.5" y="300" width="195" height="110" as="geometry" />
        </mxCell>
      </root>
    </mxGraphModel>
  </diagram>
</mxfile>
